<?xml version="1.0" standalone="no"?><!DOCTYPE svg PUBLIC "-//W3C//DTD SVG 1.1//EN" "http://www.w3.org/Graphics/SVG/1.1/DTD/svg11.dtd"><svg t="1564825526658" class="icon" viewBox="0 0 1151 1024" version="1.1" xmlns="http://www.w3.org/2000/svg" p-id="3703" xmlns:xlink="http://www.w3.org/1999/xlink" width="71.9375" height="64"><defs><style type="text/css"></style></defs><path d="M1119.996039 511.994234V225.549796c0-0.541439 0.31104-1.002239 0.31104-1.555199a30.113242 30.113242 0 0 0-0.61056-3.041276c-0.09216-0.967679-0.39168-1.866238-0.575999-2.822396a31.103961 31.103961 0 0 0-3.144956-9.285108c-0.14976-0.27648-0.13824-0.599039-0.29952-0.875519-54.143932-93.496202-186.623765-143.999818-283.691162-143.999819a273.023656 273.023656 0 0 0-31.56476 2.200318 413.636598 413.636598 0 0 0-448.830154 0 273.023656 273.023656 0 0 0-31.5878-2.165758c-97.090438 0-229.53571 50.469056-283.691162 143.999819-0.33408 0.575999-0.32256 1.221118-0.61056 1.808637a50.088897 50.088897 0 0 0-3.317755 12.337905c0 0.656639-0.38016 1.209598-0.38016 1.889277v287.953557A31.97948 31.97948 0 0 0 0.000012 543.996754v448.000715a31.97948 31.97948 0 0 0 32.002519 32.002519h160.001078a31.97948 31.97948 0 0 0 32.00252-32.002519v-96.007559h703.997832v95.996039a31.97948 31.97948 0 0 0 32.00252 32.002519h159.989558a31.97948 31.97948 0 0 0 32.00252-31.990999V543.996754a31.97948 31.97948 0 0 0-32.00252-32.00252zM95.99605 234.097625c38.764751-58.970806 136.868947-106.099066 223.994598-106.099066a222.16292 222.16292 0 0 1 34.156757 2.903036 30.597081 30.597081 0 0 0 3.455995-0.1728 21.634533 21.634533 0 0 0 14.757102-3.052796c1.566718-0.737279 3.248636-1.002239 4.723194-2.027517a351.566917 351.566917 0 0 1 397.750538 0 31.415 31.415 0 0 0 9.734388 4.389114c0.725759 0.19584 1.474558 0.18432 2.223357 0.33408a32.08316 32.08316 0 0 0 6.105592 0.910078c0.725759 0 1.382398-0.460799 2.108158-0.506879 0.956159-0.0576 1.831678 0.27648 2.799356 0.13824a222.16292 222.16292 0 0 1 34.156757-2.903036c87.12565 0 185.241366 47.128261 223.994598 106.099066v277.885089h-34.559957c-15.60958-108.356983-108.840823-192.003598-221.44868-192.003598s-205.7815 83.646615-221.391081 192.003598h-5.114874c-15.60958-108.356983-108.840823-192.003598-221.44868-192.003598s-205.81606 83.646615-221.437161 192.003598h-34.559957zM861.694925 511.994234H643.22992c14.872301-72.933028 79.4879-127.998559 156.763963-127.998558s141.903181 55.065531 156.775482 127.998558z m-571.39128 0h-95.07444c14.872301-72.933028 79.4879-127.998559 156.763963-127.998558s141.903181 55.065531 156.775482 127.998558z m797.689874 448.000715h-95.996039V863.99891a31.97948 31.97948 0 0 0-32.002519-32.002519H192.003609A31.97948 31.97948 0 0 0 160.00109 863.99891v95.996039H64.005051V575.999274h1023.988468z" p-id="3704" fill="#8a8a8a"></path></svg>