<?xml version="1.0" standalone="no"?><!DOCTYPE svg PUBLIC "-//W3C//DTD SVG 1.1//EN" "http://www.w3.org/Graphics/SVG/1.1/DTD/svg11.dtd"><svg t="1566465508963" class="icon" viewBox="0 0 1024 1024" version="1.1" xmlns="http://www.w3.org/2000/svg" p-id="7646" width="200" height="200" xmlns:xlink="http://www.w3.org/1999/xlink"><defs><style type="text/css"></style></defs><path d="M512 256m-170.666667 0a170.666667 170.666667 0 1 0 341.333334 0 170.666667 170.666667 0 1 0-341.333334 0Z" opacity=".16" p-id="7647" fill="#ff4d4f"></path><path d="M469.333333 465.066667V768c0 23.466667 19.2 42.666667 42.666667 42.666667s42.666667-19.2 42.666667-42.666667V465.066667c98.133333-19.2 170.666667-106.666667 170.666666-209.066667 0-117.333333-96-213.333333-213.333333-213.333333S298.666667 138.666667 298.666667 256c0 102.4 72.533333 189.866667 170.666666 209.066667zM512 128c70.4 0 128 57.6 128 128s-57.6 128-128 128-128-57.6-128-128 57.6-128 128-128z" p-id="7648" fill="#ff4d4f"></path><path d="M736 578.133333c-23.466667-4.266667-46.933333 8.533333-51.2 32s8.533333 46.933333 32 51.2c117.333333 27.733333 181.333333 74.666667 181.333333 106.666667 0 51.2-149.333333 128-384 128S128 819.2 128 768c0-32 61.866667-78.933333 181.333333-106.666667 23.466667-4.266667 36.266667-27.733333 32-51.2s-27.733333-36.266667-51.2-32C132.266667 614.4 42.666667 684.8 42.666667 768c0 138.666667 241.066667 213.333333 469.333333 213.333333s469.333333-74.666667 469.333333-213.333333c0-83.2-89.6-153.6-245.333333-189.866667z" p-id="7649" fill="#ff4d4f"></path></svg>