<?xml version="1.0"?>
<svg xmlns="http://www.w3.org/2000/svg" height="512px" viewBox="-66 0 512 512" width="512px"><g><path d="m142.945312 229.832031h32.441407v-41.191406h30v41.191406h32.445312v-74.714843l-47.589843-32.878907-47.296876 32.773438zm0 0" data-original="#000000" class="active-path" data-old_color="#000000" fill="#CF1322"/><path d="m191.011719.00390625-.648438-.00390625c-104.964843 0-190.363281 85.40625-190.363281 190.386719 0 57.558593 29.417969 102.445312 62.195312 147.148437l127.917969 174.464844 128.46875-174.464844c32.777344-44.699218 62.195313-89.589844 62.195313-147.144531 0-104.773437-85.066406-190.054687-189.765625-190.38671875zm98.699219 190.95312475-21.878907-15.117187v83.992187h-154.886719v-84.035156l-21.863281 15.148437-17.085937-24.65625 116.21875-80.53125 116.546875 80.519532zm0 0" data-original="#000000" class="active-path" data-old_color="#000000" fill="#CF1322"/></g> </svg>
