<?xml version="1.0"?>
<svg xmlns="http://www.w3.org/2000/svg" height="512px" viewBox="-66 0 512 512" width="512px" class=""><g><path d="m191.164062.00390625-.800781-.00390625c-104.964843 0-190.363281 85.40625-190.363281 190.386719 0 57.554687 29.417969 102.445312 62.195312 147.144531l127.917969 174.46875 128.46875-174.464844c32.773438-44.699218 62.195313-89.589844 62.195313-147.144531 0-104.71875-84.992188-189.960937-189.613282-190.38671875zm103.226563 319.79296875s-99.371094 135.890625-103.871094 142.019531l-104.132812-142.023437c-30.851563-42.074219-56.386719-80.855469-56.386719-129.40625 0-88.191407 71.535156-159.984375 159.617188-160.386719h.769531c88.441406 0 160.390625 71.953125 160.390625 160.390625 0 48.550781-25.539063 87.328125-56.386719 129.40625zm0 0" data-original="#000000" class="active-path" data-old_color="#000000" fill="#FF4D4F"/><path d="m190.386719 66.664062c-68.21875 0-123.722657 55.503907-123.722657 123.726563 0 68.21875 55.503907 123.722656 123.722657 123.722656 68.222656 0 123.726562-55.503906 123.726562-123.726562 0-68.21875-55.503906-123.722657-123.726562-123.722657zm0 217.449219c-51.679688 0-93.722657-42.046875-93.722657-93.726562 0-51.679688 42.042969-93.722657 93.722657-93.722657 51.683593 0 93.726562 42.042969 93.726562 93.722657 0 51.683593-42.046875 93.726562-93.726562 93.726562zm0 0" data-original="#000000" class="active-path" data-old_color="#000000" fill="#FF4D4F"/><path d="m205.386719 137.054688h-30v38.332031h-38.332031v30h38.332031v38.332031h30v-38.332031h38.332031v-30h-38.332031zm0 0" data-original="#000000" class="active-path" data-old_color="#000000" fill="#FF4D4F"/></g> </svg>
